<svg width="579" height="507" viewBox="0 0 579 507" fill="none" xmlns="http://www.w3.org/2000/svg">
<path d="M123.241 184.676V373C123.241 375.724 125.47 377.953 128.197 377.953H473.7C476.425 377.953 478.654 375.724 478.654 373V184.676H123.241Z" fill="#58595B"/>
<path d="M248.776 216.838H157.729C155.003 216.838 152.774 219.067 152.774 221.792V254.334C152.774 257.06 155.003 259.289 157.729 259.289H248.776V216.838Z" fill="#E0E0E0"/>
<path opacity="0.1" d="M141.718 373.001V184.677H123.241V373C123.241 375.724 125.47 377.953 128.197 377.953H146.674C143.948 377.954 141.718 375.725 141.718 373.001Z" fill="black"/>
<path opacity="0.1" d="M184.272 254.336V221.794C184.272 219.068 186.501 216.84 189.228 216.84H157.729C155.003 216.84 152.774 219.069 152.774 221.794V254.336C152.774 257.062 155.003 259.29 157.729 259.29H189.227C186.501 259.29 184.272 257.061 184.272 254.336Z" fill="black"/>
<path d="M360.732 216.839H263.182V259.291H360.732V216.839Z" fill="#E0E0E0"/>
<path d="M444.166 216.838H375.146V259.29H444.166C446.891 259.29 449.12 257.061 449.12 254.336V221.794C449.12 219.067 446.891 216.838 444.166 216.838Z" fill="#E0E0E0"/>
<path d="M343.691 327.007H229.861C225.882 327.007 222.655 323.782 222.655 319.802C222.655 315.823 225.88 312.596 229.861 312.596H343.691C347.67 312.596 350.896 315.821 350.896 319.802C350.896 323.782 347.671 327.007 343.691 327.007Z" fill="#E0E0E0"/>
<path d="M343.691 297.598H229.861C225.882 297.598 222.655 294.373 222.655 290.393C222.655 286.413 225.88 283.187 229.861 283.187H343.691C347.67 283.187 350.896 286.412 350.896 290.393C350.896 294.373 347.671 297.598 343.691 297.598Z" fill="#E0E0E0"/>
<path d="M203.522 327.007H159.979C156 327.007 152.773 323.782 152.773 319.802C152.773 315.823 155.998 312.596 159.979 312.596H203.522C207.501 312.596 210.727 315.821 210.727 319.802C210.727 323.782 207.501 327.007 203.522 327.007Z" fill="#E0E0E0"/>
<path d="M203.522 297.598H159.979C156 297.598 152.773 294.373 152.773 290.393C152.773 286.413 155.998 283.187 159.979 283.187H203.522C207.501 283.187 210.727 286.412 210.727 290.393C210.727 294.373 207.501 297.598 203.522 297.598Z" fill="#E0E0E0"/>
<path d="M121.36 139.369C118.636 139.369 116.406 141.599 116.406 144.323V184.804C116.406 187.53 118.636 189.76 121.36 189.76H137.797L142.777 185.201L166.793 143.893L166.968 139.37H121.36V139.369Z" fill="#414042"/>
<path opacity="0.1" d="M133.17 184.804V144.323C133.17 141.598 135.401 139.369 138.126 139.369H121.36C118.636 139.369 116.406 141.599 116.406 144.323V184.804C116.406 187.53 118.636 189.76 121.36 189.76H137.797L137.83 189.731C135.244 189.573 133.17 187.429 133.17 184.804Z" fill="black"/>
<path d="M205.863 139.369L202.337 141.011L175.438 188.083L176.69 189.76H221.504L224.432 188.083L252.291 141.011L250.675 139.369H205.863Z" fill="#414042"/>
<path d="M137.798 189.76H176.691L205.863 139.369H166.968L137.798 189.76Z" fill="#E0E0E0"/>
<path d="M289.57 139.369L285.915 141.011L259.977 187.123L260.399 189.76H305.213L308.97 187.123L335.869 141.011L334.383 139.369H289.57Z" fill="#414042"/>
<path d="M221.505 189.76H260.399L289.57 139.369H250.676L221.505 189.76Z" fill="#E0E0E0"/>
<path d="M373.278 139.369L369.491 141.011L342.593 188.083L344.107 189.76H388.921L392.547 187.123L419.445 141.011L418.091 139.369H373.278Z" fill="#414042"/>
<path d="M305.212 189.76H344.107L373.278 139.369H334.383L305.212 189.76Z" fill="#E0E0E0"/>
<path d="M480.534 139.369H456.985L454.028 141.011L427.13 187.123L427.815 189.76H480.534C483.258 189.76 485.488 187.53 485.488 184.804V144.323C485.489 141.599 483.258 139.369 480.534 139.369Z" fill="#414042"/>
<path d="M388.921 189.76H427.814L456.986 139.369H418.091L388.921 189.76Z" fill="#E0E0E0"/>
<path d="M107.673 93.1292C105.041 93.8352 103.463 96.5655 104.169 99.1985L114.645 138.3C115.351 140.933 118.082 142.509 120.715 141.803L136.591 137.548L140.22 131.856L152.726 85.7389L151.724 81.3247L107.673 93.1292Z" fill="#414042"/>
<path d="M189.294 71.2579L186.315 73.7563L172.517 126.185L174.159 127.482L217.446 115.884L219.839 113.505L234.566 60.8264L232.58 59.6603L189.294 71.2579Z" fill="#414042"/>
<path d="M136.592 137.548L174.159 127.482L189.294 71.2578L151.725 81.3247L136.592 137.548Z" fill="#E0E0E0"/>
<path d="M270.15 49.5933L267.043 52.1251L253.925 103.379L255.016 105.818L298.302 94.2193L301.248 90.6976L315.295 39.1962L313.436 37.9957L270.15 49.5933Z" fill="#414042"/>
<path d="M217.446 115.884L255.016 105.818L270.15 49.5933L232.58 59.6601L217.446 115.884Z" fill="#E0E0E0"/>
<path d="M351.005 27.9279L347.772 30.4931L333.974 82.9222L335.87 84.1514L379.159 72.5529L381.977 69.0665L396.024 17.5642L394.293 16.3293L351.005 27.9279Z" fill="#414042"/>
<path d="M298.302 94.2193L335.87 84.1515L351.005 27.928L313.436 37.9958L298.302 94.2193Z" fill="#E0E0E0"/>
<path d="M454.607 0.168208L431.861 6.26343L429.43 8.61338L415.383 60.1157L416.727 62.486L467.649 48.8428C470.282 48.1358 471.857 45.4064 471.152 42.7735L460.674 3.67134C459.97 1.04028 457.239 -0.536871 454.607 0.168208Z" fill="#414042"/>
<path d="M379.158 72.5529L416.727 62.486L431.861 6.26343L394.292 16.3294L379.158 72.5529Z" fill="#E0E0E0"/>
<path d="M571.566 470.514H450.732C446.628 470.514 443.3 467.187 443.3 463.082C443.3 458.978 446.628 455.65 450.732 455.65H571.568C575.673 455.65 579 458.978 579 463.082C579 467.187 575.672 470.514 571.566 470.514Z" fill="#58595B"/>
<path d="M450.73 470.518C512.957 470.518 563.402 420.203 563.402 358.137C563.402 296.07 512.957 245.755 450.73 245.755C388.503 245.755 338.059 296.07 338.059 358.137C338.059 420.203 388.503 470.518 450.73 470.518Z" fill="#AAB0B5"/>
<path d="M450.739 322.226C466.046 322.226 478.455 309.85 478.455 294.584C478.455 279.318 466.046 266.942 450.739 266.942C435.432 266.942 423.023 279.318 423.023 294.584C423.023 309.85 435.432 322.226 450.739 322.226Z" fill="#58595B"/>
<path d="M519.885 364.766C505.327 369.486 489.688 361.542 484.957 347.023C480.227 332.504 488.192 316.907 502.749 312.188C517.306 307.47 532.941 315.414 537.674 329.933C542.406 344.451 534.441 360.047 519.885 364.766Z" fill="#58595B"/>
<path d="M465.77 425.757C456.77 413.408 459.511 396.12 471.893 387.144C484.275 378.168 501.608 380.902 510.608 393.252C519.609 405.601 516.867 422.888 504.484 431.863C492.103 440.84 474.771 438.107 465.77 425.757Z" fill="#58595B"/>
<path d="M390.885 393.285C399.879 380.929 417.209 378.187 429.597 387.156C441.985 396.124 444.736 413.411 435.742 425.765C426.749 438.119 409.419 440.862 397.032 431.892C384.644 422.925 381.894 405.64 390.885 393.285Z" fill="#58595B"/>
<path d="M398.703 312.218C413.262 316.928 421.235 332.518 416.512 347.041C411.79 361.563 396.155 369.515 381.596 364.804C367.036 360.093 359.061 344.501 363.787 329.98C368.508 315.459 384.141 307.507 398.703 312.218Z" fill="#58595B"/>
<path opacity="0.1" d="M443.107 294.588C443.107 282.856 450.44 272.836 460.78 268.824C457.665 267.615 454.281 266.945 450.737 266.945C435.43 266.945 423.022 279.32 423.022 294.588C423.022 309.854 435.43 322.23 450.737 322.23C454.281 322.23 457.665 321.56 460.78 320.351C450.439 316.337 443.107 306.319 443.107 294.588Z" fill="black"/>
<path opacity="0.1" d="M417.117 431.893C404.73 422.925 401.979 405.64 410.971 393.286C414.222 388.819 418.565 385.616 423.367 383.762C411.91 379.306 398.449 382.894 390.886 393.286C381.895 405.64 384.644 422.925 397.032 431.893C404.941 437.62 414.863 438.565 423.347 435.289C421.179 434.447 419.086 433.319 417.117 431.893Z" fill="black"/>
<path opacity="0.1" d="M383.872 329.981C386.543 321.767 392.706 315.658 400.191 312.75C399.702 312.562 399.207 312.382 398.703 312.219C384.143 307.508 368.509 315.459 363.787 329.981C359.062 344.502 367.035 360.093 381.596 364.805C387.919 366.852 394.445 366.506 400.192 364.273C386.585 359.011 379.311 343.998 383.872 329.981Z" fill="black"/>
<path d="M442.957 372.992C434.054 368.47 430.514 357.605 435.047 348.727C439.583 339.847 450.477 336.316 459.38 340.839C468.281 345.361 471.822 356.226 467.287 365.105C462.752 373.983 451.859 377.517 442.957 372.992Z" fill="#58595B"/>
<path d="M262.51 282.617C262.51 272.354 256.095 264.336 246.153 264.336L245.832 264.015V258.242C245.832 247.979 237.493 239.961 227.551 239.961C217.288 239.961 209.27 248.299 209.27 258.242V257.921C209.27 247.337 200.61 238.357 189.706 238.357C184.574 238.357 179.122 240.923 175.594 244.451V239.961C175.594 230.018 167.576 222 157.633 222C150.257 222 143.842 226.49 141.276 232.905C137.428 230.339 132.938 228.735 127.806 228.735C114.656 228.735 104.072 239.319 104.072 252.469C104.072 255.997 105.035 259.525 106.317 262.732L104.714 261.128C101.827 259.204 98.2994 257.921 94.7714 257.921C85.1497 257.921 76.1694 265.939 76.1694 275.561V284.541L262.51 282.617Z" fill="#FCCC54"/>
<path d="M96.0547 474.73L98.2997 489.163C98.6205 491.408 100.545 493.332 102.469 493.332H234.928C237.173 493.332 239.097 491.408 239.418 488.842L241.022 474.73H96.0547Z" fill="#E2E7ED"/>
<path d="M76.1694 278.447C76.1694 289.352 76.4902 300.257 77.7731 310.84L96.0543 475.051H241.342L260.906 308.275C261.868 299.294 262.51 290.314 262.831 281.334V278.447H76.1694Z" fill="#DB4F38"/>
<path d="M115.298 489.484L113.053 475.051H96.0547L98.2997 489.484C98.6205 491.729 100.545 493.653 102.469 493.653H119.468C117.543 493.332 115.619 491.729 115.298 489.484Z" fill="#F6F7F5"/>
<path d="M93.4886 278.447L76.4902 278.127V278.447C76.4902 289.352 76.811 299.936 78.0939 310.52L96.3751 474.73H113.373L95.0922 310.52C93.8093 299.936 93.1679 289.352 93.4886 278.447Z" fill="#E2564B"/>
<path d="M129.731 278.447L79.6978 327.518L82.2635 350.931L156.03 278.447H129.731Z" fill="#FCCC54"/>
<path d="M208.308 278.447L87.395 397.436L89.9608 420.849L234.607 278.447H208.308Z" fill="#FCCC54"/>
<path d="M95.0928 467.354L96.0549 474.73H114.015L258.02 332.97L261.548 303.464L95.0928 467.354Z" fill="#FCCC54"/>
<path d="M192.592 474.73L247.757 420.528L251.285 391.021L166.293 474.73H192.592Z" fill="#FCCC54"/>
<path d="M82.2635 350.931L97.6583 335.857L95.0925 312.444L79.6978 327.518L82.2635 350.931Z" fill="#F9E978"/>
<path d="M89.9609 420.849L87.7158 400.964L89.9609 420.849Z" fill="#F9E978"/>
<path d="M102.79 382.362L87.395 397.436L87.7157 400.964L89.9608 420.849L105.356 405.775L102.79 382.362Z" fill="#F9E978"/>
<path d="M95.0928 467.354L96.0549 474.73L95.0928 467.354Z" fill="#F9E978"/>
<path d="M95.0928 467.354L96.0549 474.73H113.053L110.488 452.28L95.0928 467.354Z" fill="#F9E978"/>
<path d="M263.472 296.408H75.528C73.6036 296.408 72 294.804 72 292.88V281.975C72 280.051 73.6036 278.447 75.528 278.447H263.472C265.396 278.447 267 280.051 267 281.975V292.88C267 294.804 265.396 296.408 263.472 296.408Z" fill="#E2E7ED"/>
<path d="M87.7155 292.88V281.975C87.7155 280.051 89.3191 278.447 91.2434 278.447H75.528C73.6036 278.447 72 280.051 72 281.975V292.88C72 294.804 73.6036 296.408 75.528 296.408H91.2434C88.9984 296.408 87.7155 294.804 87.7155 292.88Z" fill="#F6F7F5"/>
<path d="M117.863 257.6C122.823 257.6 126.843 253.58 126.843 248.62C126.843 243.66 122.823 239.64 117.863 239.64C112.903 239.64 108.883 243.66 108.883 248.62C108.883 253.58 112.903 257.6 117.863 257.6Z" fill="#F9E978"/>
<path d="M152.822 244.13C156.896 244.13 160.199 240.827 160.199 236.753C160.199 232.679 156.896 229.377 152.822 229.377C148.748 229.377 145.445 232.679 145.445 236.753C145.445 240.827 148.748 244.13 152.822 244.13Z" fill="#F9E978"/>
<path d="M143.521 264.656C146.532 264.656 148.973 262.215 148.973 259.204C148.973 256.193 146.532 253.752 143.521 253.752C140.51 253.752 138.069 256.193 138.069 259.204C138.069 262.215 140.51 264.656 143.521 264.656Z" fill="#F9E978"/>
<path d="M182.329 264.656C186.934 264.656 190.667 260.923 190.667 256.317C190.667 251.712 186.934 247.979 182.329 247.979C177.723 247.979 173.99 251.712 173.99 256.317C173.99 260.923 177.723 264.656 182.329 264.656Z" fill="#F9E978"/>
<path d="M219.853 256.638C222.864 256.638 225.305 254.197 225.305 251.186C225.305 248.175 222.864 245.734 219.853 245.734C216.842 245.734 214.401 248.175 214.401 251.186C214.401 254.197 216.842 256.638 219.853 256.638Z" fill="#F9E978"/>
<path d="M0 378.736V468.736C0 473.936 2 478.736 5.6 482.736L25.2 502.336C27.6 504.736 30.8 506.336 34.4 506.336H156L170.4 479.136L184.8 506.336H306.4C310 506.336 313.2 505.136 315.6 502.336L335.2 482.736C338.8 479.136 340.8 473.936 340.8 468.736V378.736H0Z" fill="#263645"/>
<path d="M15.9999 482.336C12.3999 478.736 10.3999 473.536 10.3999 468.336V378.736H0.399902V468.736C0.399902 473.936 2.3999 478.736 5.9999 482.736L25.5999 502.336C27.9999 504.736 31.1999 506.336 34.7999 506.336H44.7999C41.1999 506.336 37.9999 505.136 35.5999 502.336L15.9999 482.336Z" fill="#2D3F4C"/>
<path d="M32.7999 378.736L68.7999 298.336C73.5999 287.936 61.9999 277.536 52.3999 283.136C52.3999 283.136 51.9999 283.136 51.9999 283.536C50.3999 284.336 49.1999 285.936 48.3999 287.536L0.399902 378.736H32.7999Z" fill="#263645"/>
<path d="M308.8 378.736L272.8 298.336C268 287.936 279.6 277.536 289.2 283.136C289.2 283.136 289.6 283.136 289.6 283.536C291.2 284.336 292.4 285.936 293.2 287.536L341.2 378.736H308.8Z" fill="#263645"/>
<path d="M26.7998 423.536V455.536C26.7998 461.936 29.1998 468.336 33.9998 472.736L39.5998 478.336C43.9998 482.736 50.3998 485.536 56.7998 485.536H118.4C127.6 485.536 135.6 480.736 140 472.736C142 469.136 142.8 465.136 142.8 461.136V423.936C142.8 410.336 132 399.536 118.4 399.536H51.1998C37.9998 399.136 26.7998 409.936 26.7998 423.536Z" fill="#DB4F38"/>
<path d="M314.8 423.536V455.536C314.8 461.936 312.4 468.336 307.6 472.736L302 478.336C297.6 482.736 291.2 485.536 284.8 485.536H223.6C214.4 485.536 206.4 480.736 202 472.736C200 469.136 199.2 465.136 199.2 461.136V423.936C199.2 410.336 210 399.536 223.6 399.536H290.4C303.6 399.136 314.8 409.936 314.8 423.536Z" fill="#1BB5FF"/>
<path d="M57.5999 399.136L30.3999 467.536C31.5999 469.536 32.7999 471.136 34.3999 472.736L39.9999 478.336C40.7999 479.136 41.9999 479.936 43.1999 480.736L74.7999 399.136H57.5999Z" fill="#DD9292"/>
<path d="M103.2 399.136L68.7998 485.136H103.6L134.8 405.936C130.4 401.936 124.4 399.136 118 399.136H103.2Z" fill="#DD9292"/>
<path d="M210.4 481.536C211.6 482.336 213.2 483.136 214.8 483.536C213.2 483.136 212 482.336 210.4 481.536Z" fill="#1BB5FF"/>
<path d="M215.6 483.936C215.2 483.936 215.2 483.936 214.8 483.536C215.2 483.536 215.2 483.536 215.6 483.936Z" fill="#B3F1FF"/>
<path d="M210.4 481.536C211.6 482.336 213.2 483.136 214.8 483.536C215.2 483.536 215.2 483.536 215.6 483.936C217.2 484.336 218.8 484.736 220 485.136L254 399.136H240L208 479.936C208.8 480.336 209.6 480.736 210.4 481.536Z" fill="#B3F1FF"/>
<path d="M290.4 399.136H277.2L242.8 485.136H270.8L303.6 402.736C299.6 400.336 295.2 399.136 290.4 399.136Z" fill="#B3F1FF"/>
</svg>
